<svg width="277" height="73" viewBox="0 0 277 73" fill="none" xmlns="http://www.w3.org/2000/svg">
<rect x="4" y="18" width="88" height="55" fill="#C4C4C4"/>
<path d="M44 14.9434L58.3333 9H74.6212L87 14.9434V72L74.6212 67.8396H58.3333L44 72V14.9434Z" fill="#E7E7E7"/>
<path d="M44 14.9434L29.3333 9H12.6667L-1.3113e-06 14.9434V72L12.6667 67.8396H29.3333L44 72V14.9434Z" fill="white"/>
<path d="M59.5454 64V40.6H62.2814V53.344L65.1254 50.824L73.0094 40.6H75.2054L66.9974 51.04L76.3214 64H72.9014L64.9814 53.128L62.2814 55.396V64H59.5454ZM79.8353 64V46H82.4273V53.92H90.4553V46H93.0833V64H90.4553V55.54H82.4273V64H79.8353ZM97.821 64V46H100.413V60.364L109.197 46H111.537V64H108.909V49.24L99.837 64H97.821ZM116.334 64V46H125.658V47.692H118.926V64H116.334ZM132.086 64.36C130.502 64.36 129.23 63.976 128.27 63.208C127.31 62.416 126.83 61.324 126.83 59.932C126.83 56.404 130.226 54.28 137.018 53.56V51.652C137.018 49.948 136.742 48.784 136.19 48.16C135.638 47.536 134.666 47.224 133.274 47.224C132.65 47.224 132.014 47.344 131.366 47.584C130.718 47.8 130.166 48.04 129.71 48.304C129.278 48.544 129.002 48.7 128.882 48.772L128.594 47.296C128.714 47.2 129.014 47.02 129.494 46.756C129.998 46.492 130.622 46.24 131.366 46C132.134 45.76 132.902 45.64 133.67 45.64C135.734 45.64 137.246 46.072 138.206 46.936C139.166 47.8 139.646 49.324 139.646 51.508V60.328C139.646 61.288 139.73 61.936 139.898 62.272C140.09 62.608 140.318 62.776 140.582 62.776C140.798 62.776 141.062 62.74 141.374 62.668C141.686 62.572 141.89 62.5 141.986 62.452L142.094 63.676C141.902 63.748 141.494 63.88 140.87 64.072C140.246 64.264 139.718 64.36 139.286 64.36C138.662 64.36 138.182 64.168 137.846 63.784C137.51 63.376 137.306 62.668 137.234 61.66H137.198C137.198 61.756 137.006 62.032 136.622 62.488C136.238 62.944 135.662 63.376 134.894 63.784C134.15 64.168 133.214 64.36 132.086 64.36ZM132.878 62.776C133.742 62.776 134.486 62.584 135.11 62.2C135.734 61.816 136.202 61.396 136.514 60.94C136.85 60.484 137.018 60.22 137.018 60.148V54.892C134.834 55.132 133.034 55.6 131.618 56.296C130.226 56.992 129.53 58.096 129.53 59.608C129.53 60.64 129.83 61.432 130.43 61.984C131.03 62.512 131.846 62.776 132.878 62.776Z" fill="#514F64"/>
<path d="M14.384 36V12.6H17.12V25.344L19.964 22.824L27.848 12.6H30.044L21.836 23.04L31.16 36H27.74L19.82 25.128L17.12 27.396V36H14.384ZM34.7099 45.36C34.2779 45.36 33.9059 45.324 33.5939 45.252C33.2819 45.18 33.0419 45.108 32.8739 45.036C32.7059 44.964 32.5979 44.916 32.5499 44.892L32.8379 43.236C32.9099 43.284 33.0899 43.344 33.3779 43.416C33.6659 43.512 33.9779 43.56 34.3139 43.56C35.4179 43.56 36.3419 42.96 37.0859 41.76C37.8299 40.584 38.6579 38.736 39.5699 36.216L32.5139 18H35.6099L40.9379 33.048L45.7619 18H47.6699L41.4419 36.288C40.4099 39.24 39.3899 41.484 38.3819 43.02C37.3979 44.58 36.1739 45.36 34.7099 45.36ZM48.2898 36.324C48.0738 36.324 47.9058 36.312 47.7858 36.288L47.8938 34.524H48.0738C49.5378 34.524 50.6418 33.144 51.3858 30.384C52.1538 27.6 52.5378 23.472 52.5378 18H62.0778V36H59.4498V19.692H54.3738C54.3018 25.044 53.7498 29.16 52.7178 32.04C51.7098 34.896 50.2338 36.324 48.2898 36.324ZM66.8484 36V18H69.4404V32.364L78.2244 18H80.5644V36H77.9364V21.24L68.8644 36H66.8484ZM85.3614 36V18H87.9534V25.92H95.9814V18H98.6094V36H95.9814V27.54H87.9534V36H85.3614ZM107.055 36.36C105.471 36.36 104.199 35.976 103.239 35.208C102.279 34.416 101.799 33.324 101.799 31.932C101.799 28.404 105.195 26.28 111.987 25.56V23.652C111.987 21.948 111.711 20.784 111.159 20.16C110.607 19.536 109.635 19.224 108.243 19.224C107.619 19.224 106.983 19.344 106.335 19.584C105.687 19.8 105.135 20.04 104.679 20.304C104.247 20.544 103.971 20.7 103.851 20.772L103.563 19.296C103.683 19.2 103.983 19.02 104.463 18.756C104.967 18.492 105.591 18.24 106.335 18C107.103 17.76 107.871 17.64 108.639 17.64C110.703 17.64 112.215 18.072 113.175 18.936C114.135 19.8 114.615 21.324 114.615 23.508V32.328C114.615 33.288 114.699 33.936 114.867 34.272C115.059 34.608 115.287 34.776 115.551 34.776C115.767 34.776 116.031 34.74 116.343 34.668C116.655 34.572 116.859 34.5 116.955 34.452L117.063 35.676C116.871 35.748 116.463 35.88 115.839 36.072C115.215 36.264 114.687 36.36 114.255 36.36C113.631 36.36 113.151 36.168 112.815 35.784C112.479 35.376 112.275 34.668 112.203 33.66H112.167C112.167 33.756 111.975 34.032 111.591 34.488C111.207 34.944 110.631 35.376 109.863 35.784C109.119 36.168 108.183 36.36 107.055 36.36ZM107.847 34.776C108.711 34.776 109.455 34.584 110.079 34.2C110.703 33.816 111.171 33.396 111.483 32.94C111.819 32.484 111.987 32.22 111.987 32.148V26.892C109.803 27.132 108.003 27.6 106.587 28.296C105.195 28.992 104.499 30.096 104.499 31.608C104.499 32.64 104.799 33.432 105.399 33.984C105.999 34.512 106.815 34.776 107.847 34.776ZM119.891 18H122.051L122.375 20.16C122.711 19.632 123.287 19.08 124.103 18.504C124.919 17.928 126.047 17.64 127.487 17.64C129.599 17.64 131.279 18.42 132.527 19.98C133.799 21.54 134.435 23.712 134.435 26.496C134.435 29.52 133.799 31.92 132.527 33.696C131.255 35.472 129.455 36.36 127.127 36.36C126.143 36.36 125.303 36.24 124.607 36C123.935 35.736 123.419 35.46 123.059 35.172C122.699 34.86 122.519 34.68 122.519 34.632H122.483V45L119.891 45.072V18ZM126.263 34.632C128.135 34.632 129.503 33.972 130.367 32.652C131.231 31.308 131.663 29.28 131.663 26.568C131.663 24.048 131.231 22.224 130.367 21.096C129.503 19.968 128.255 19.404 126.623 19.404C125.759 19.404 125.015 19.584 124.391 19.944C123.767 20.304 123.287 20.7 122.951 21.132C122.639 21.54 122.483 21.78 122.483 21.852V33.048C122.747 33.384 123.179 33.732 123.779 34.092C124.403 34.452 125.231 34.632 126.263 34.632ZM137.842 36V18H140.434V25.92H148.462V18H151.09V36H148.462V27.54H140.434V36H137.842ZM159.535 36.36C157.951 36.36 156.679 35.976 155.719 35.208C154.759 34.416 154.279 33.324 154.279 31.932C154.279 28.404 157.675 26.28 164.467 25.56V23.652C164.467 21.948 164.191 20.784 163.639 20.16C163.087 19.536 162.115 19.224 160.723 19.224C160.099 19.224 159.463 19.344 158.815 19.584C158.167 19.8 157.615 20.04 157.159 20.304C156.727 20.544 156.451 20.7 156.331 20.772L156.043 19.296C156.163 19.2 156.463 19.02 156.943 18.756C157.447 18.492 158.071 18.24 158.815 18C159.583 17.76 160.351 17.64 161.119 17.64C163.183 17.64 164.695 18.072 165.655 18.936C166.615 19.8 167.095 21.324 167.095 23.508V32.328C167.095 33.288 167.179 33.936 167.347 34.272C167.539 34.608 167.767 34.776 168.031 34.776C168.247 34.776 168.511 34.74 168.823 34.668C169.135 34.572 169.339 34.5 169.435 34.452L169.543 35.676C169.351 35.748 168.943 35.88 168.319 36.072C167.695 36.264 167.167 36.36 166.735 36.36C166.111 36.36 165.631 36.168 165.295 35.784C164.959 35.376 164.755 34.668 164.683 33.66H164.647C164.647 33.756 164.455 34.032 164.071 34.488C163.687 34.944 163.111 35.376 162.343 35.784C161.599 36.168 160.663 36.36 159.535 36.36ZM160.327 34.776C161.191 34.776 161.935 34.584 162.559 34.2C163.183 33.816 163.651 33.396 163.963 32.94C164.299 32.484 164.467 32.22 164.467 32.148V26.892C162.283 27.132 160.483 27.6 159.067 28.296C157.675 28.992 156.979 30.096 156.979 31.608C156.979 32.64 157.279 33.432 157.879 33.984C158.479 34.512 159.295 34.776 160.327 34.776ZM175.108 28.116C173.956 27.732 173.008 27.132 172.264 26.316C171.52 25.5 171.148 24.516 171.148 23.364C171.148 21.588 171.724 20.256 172.876 19.368C174.028 18.456 175.708 18 177.916 18H183.532V36H180.94V28.584H177.34L173.884 36H171.22L175.108 28.116ZM180.94 27.144V19.44H178.132C175.18 19.44 173.704 20.748 173.704 23.364C173.704 24.588 174.1 25.524 174.892 26.172C175.708 26.82 176.764 27.144 178.06 27.144H180.94Z" fill="#514F64"/>
</svg>
