<svg width="60" height="60" viewBox="0 0 60 60" fill="none" xmlns="http://www.w3.org/2000/svg">
<circle cx="30" cy="30" r="30" fill="white"/>
<circle cx="30.5" cy="28.5" r="8.5" fill="#E7C5C5"/>
<ellipse cx="30" cy="48" rx="20" ry="12" fill="#2F465B"/>
<ellipse cx="34.8393" cy="23.6897" rx="6.5" ry="2.68665" transform="rotate(35.965 34.8393 23.6897)" fill="#5A4242"/>
<ellipse cx="34.8393" cy="23.6897" rx="6.5" ry="2.68665" transform="rotate(35.965 34.8393 23.6897)" fill="#5A4242"/>
<ellipse cx="34.8393" cy="23.6897" rx="6.5" ry="2.68665" transform="rotate(35.965 34.8393 23.6897)" fill="#5A4242"/>
<ellipse cx="34.8393" cy="23.6897" rx="6.5" ry="2.68665" transform="rotate(35.965 34.8393 23.6897)" fill="#5A4242"/>
<ellipse cx="26.021" cy="23.5135" rx="5.52356" ry="2.69915" transform="rotate(142.301 26.021 23.5135)" fill="#5A4242"/>
<ellipse cx="26.021" cy="23.5135" rx="5.52356" ry="2.69915" transform="rotate(142.301 26.021 23.5135)" fill="#5A4242"/>
<ellipse cx="26.021" cy="23.5135" rx="5.52356" ry="2.69915" transform="rotate(142.301 26.021 23.5135)" fill="#5A4242"/>
<ellipse cx="26.021" cy="23.5135" rx="5.52356" ry="2.69915" transform="rotate(142.301 26.021 23.5135)" fill="#5A4242"/>
</svg>
