<svg width="30" height="32" viewBox="0 0 30 32" fill="none" xmlns="http://www.w3.org/2000/svg">
<path d="M17.7444 4.45819C16.4166 6.15722 15.0417 7.81648 13.7025 9.50495C13.4529 9.81965 13.1894 10.496 12.7749 10.6203C12.3478 10.7485 12.0371 11.2885 11.781 11.6584C10.8248 13.0396 9.27863 14.9916 8.00422 16.0536C7.11428 16.7952 6.27992 17.7594 5.4201 18.5715C4.83239 19.1265 3.80614 20.6295 3.03477 20.758C2.34418 20.8731 2.04684 21.2948 2.04087 21.9507C2.02522 23.6731 2.04087 25.3964 2.04087 27.1189C2.04087 27.9291 1.94891 28.81 2.04087 29.6147C2.10172 30.1471 4.00637 29.9018 4.47039 29.9018C6.34229 29.9018 8.31587 30.3563 10.1908 30.1006C10.8189 30.0149 11.7019 28.4164 11.9798 27.9582C12.379 27.3 12.8714 26.6074 13.4927 26.1361C14.8005 25.144 16.4973 23.9232 17.3468 22.4366C17.6627 21.8838 18.7383 21.2559 18.7383 20.6586C18.7383 19.9377 19.7782 18.987 20.2291 18.4831C21.027 17.5914 21.5451 16.5597 22.4046 15.7002C23.045 15.0598 23.3042 14.2043 23.9065 13.602C24.8169 12.6916 25.431 11.3701 26.0047 10.2228C26.212 9.80815 27.8756 7.98196 27.6281 7.52821C26.966 6.31441 25.0321 5.5001 23.9727 4.72323C22.958 3.97908 21.9809 3.17552 20.8586 2.59188C20.1391 2.21779 19.9582 1.60275 19.3346 2.35998C18.6492 3.1922 17.9743 4.43484 17.148 5.05453" stroke="#DBDBD6" stroke-width="3" stroke-linecap="round"/>
<path d="M6.41406 18.1738C8.18167 18.2418 9.7134 19.0565 10.8755 20.4046C11.4859 21.1126 12.4753 21.4909 13.1725 22.1384C13.7267 22.6529 14.3583 23.0884 14.9615 23.5408" stroke="#DBDBD6" stroke-width="3" stroke-linecap="round"/>
<path d="M2.83594 26.9199C3.52253 27.2117 4.82372 28.4837 4.82372 29.3053" stroke="#DBDBD6" stroke-width="3" stroke-linecap="round"/>
</svg>
