<svg width="43" height="49" viewBox="0 0 43 49" fill="none" xmlns="http://www.w3.org/2000/svg">
<path d="M5 26.8193H38V45.8193C38 47.4762 36.6569 48.8193 35 48.8193H8C6.34314 48.8193 5 47.4762 5 45.8193V26.8193Z" fill="#C4C4C4"/>
<path d="M9.45946 35.9255C9.45946 37.8331 7.67973 39.5742 5.22973 39.5742C2.77973 39.5742 1 37.8331 1 35.9255C1 34.0179 2.77973 32.2769 5.22973 32.2769C7.67973 32.2769 9.45946 34.0179 9.45946 35.9255Z" stroke="#C4C4C4" stroke-width="2"/>
<path d="M42 35.9255C42 37.8331 40.2203 39.5742 37.7703 39.5742C35.3203 39.5742 33.5405 37.8331 33.5405 35.9255C33.5405 34.0179 35.3203 32.2769 37.7703 32.2769C40.2203 32.2769 42 34.0179 42 35.9255Z" stroke="#C4C4C4" stroke-width="2"/>
<path d="M21.6326 1C19.6234 1.27243 17.8281 2.00037 17.1384 4.14593C16.3568 6.5776 18.0254 7.78615 19.8516 8.87315C21.2179 9.68642 22.3817 10.5971 22.3817 12.3104C22.3817 13.1206 22.1744 13.4852 21.6659 14.1164C21.3249 14.5397 20.7552 15.2958 20.2844 15.5312" stroke="#C4C4C4" stroke-width="2" stroke-linecap="round"/>
<path d="M27.4752 14.4824C27.7751 14.9948 28.2552 16.1342 28.0661 16.7961C27.867 17.4931 26.6113 17.7253 26.2768 18.3108C25.8741 19.0154 25.3779 19.4837 25.3779 20.3914C25.3779 21.3812 25.9923 22.1347 26.7262 22.7218" stroke="#C4C4C4" stroke-width="2" stroke-linecap="round"/>
<path d="M11.7454 10.8872C13.4754 12.2299 16.409 14.4224 14.8081 16.9127C14.3112 17.6856 13.8994 18.1846 13.6928 19.1349C13.5578 19.7562 13.5198 21.266 14.2921 21.5235" stroke="#C4C4C4" stroke-width="2" stroke-linecap="round"/>
</svg>
